<svg width="47" height="18" viewBox="0 0 47 18" fill="none" xmlns="http://www.w3.org/2000/svg">
<path d="M2.58 8.66C2.76 8.66 2.94 8.66 3.14 8.66V10.32C3.14 10.72 3.12 11.1 3.04 11.48C2.9 12.2 2.48 12.8 1.88 13.08H2.54C3.68 12.66 4.84 11.98 5.38 10.94C5.64 10.46 5.7 9.9 5.7 9.2V7.64V5.82C5.7 3.56 6.64 2.26 7.64 1.46C7.68 1.42 7.74 1.38 7.8 1.34L7.82 1.04C7.4 1.34 6.92 1.54 6.28 1.54C5.32 1.54 4.66 0.98 3.72 0.98C2.06 0.98 0.92 3.04 0.46 3.86H0.92C1.02 3.36 1.48 3.02 2.1 3.02C2.86 3.02 3.46 3.42 4.28 3.42C4.7 3.42 5.06 3.3 5.44 3.12L4.58 3.82C3.76 4.54 3.24 4.74 3.14 6.42C2.18 6.46 0.82 6.8 0.82 8.62C0.82 9.02 0.92 9.44 1.08 9.8H1.46C1.34 9.12 1.78 8.66 2.58 8.66ZM8.24 4.12L8.52 4.42L9.3 3.56C9.74 3.86 10.26 4.06 10.8 4.12L7.08 8.5L7.16 5.48C7.2 3.42 7.96 2.28 9.5 1.22L9.18 0.76C6.38 2.7 6.6 4.96 6.6 5.48L6.5 9.82C6.46 11.3 5.96 12.06 4.14 13.22C2.6 13.84 1.36 15.06 0.66 16.46H1.26C1.86 15.54 2.92 14.88 4.36 14.88C4.74 14.88 5.12 14.92 5.48 15C6.36 15.2 7.2 15.62 7.9 16.16L10.7 13.96C11.04 14.88 11.54 15.7 12.48 16.14L15.54 13.72V13.1L14.18 14.16C13.2 13.34 12.94 12 12.56 10.66C12.1 9.06 11.46 7.44 9.12 6.74L11.32 4.16C13.18 4.16 14.34 2.8 14.34 1.36C14.34 1.2 14.34 1.04 14.3 0.88H14.04C13.84 1.52 13.26 2 12.44 2C11.66 2 11.1 1.64 10.7 1.18L8.24 4.12ZM5.62 12.84C6.78 11.86 7.02 11.04 7.06 9.84V9.04H7.14L7.4 8.76C9.02 9.06 9.6 10.24 10.02 11.58C10.22 12.26 10.36 12.96 10.58 13.62L10 14.08C8.98 13.26 7.66 12.8 6.34 12.8C6.1 12.8 5.86 12.82 5.62 12.84ZM19.1272 9.68C19.1272 9.18 19.5872 9.04 20.1072 9.04C20.1872 9.04 20.2472 9.04 20.3272 9.04V12.32C20.3072 12.32 20.3072 12.32 20.3072 12.32C18.6472 12.32 17.2872 13.4 17.2872 15.02C17.2872 16.8 18.8672 17.78 20.2672 17.54L20.3672 17.18C19.6672 17.24 19.0272 16.76 19.0272 16.08C19.0272 15.5 19.4872 15.14 20.0472 15.14C20.7872 15.14 21.3272 15.6 21.7072 16L24.2872 13.14L24.0072 12.86L23.3272 13.62C22.4872 12.76 21.5272 12.46 20.8872 12.36V4.4C20.9272 4.48 20.9872 4.56 21.0472 4.66L27.7472 16H28.5072V4.24C29.8672 4.14 31.0472 3.24 31.0472 1.86C31.0472 1.52 30.9672 1.18 30.8072 0.86H30.5272C30.4672 1.46 29.9872 1.92 29.3272 1.92C28.6072 1.92 28.0872 1.48 27.7672 1.06L27.3672 1.04L24.8872 3.92L25.1672 4.22L25.9272 3.36C26.4072 3.82 27.1072 4.18 27.9472 4.24C27.9472 6.44 27.9472 8.64 27.9472 10.84L23.1272 2.8C22.6072 1.88 22.0672 0.84 20.6072 0.84C19.2272 0.84 18.1072 2.04 18.1072 3.48C18.1072 3.66 18.1272 3.86 18.1672 4.04L18.5472 4.12C18.5472 3.44 18.8672 3.06 19.4272 3.06C19.7272 3.06 20.0272 3.28 20.3272 3.62V6.32C20.3072 6.32 20.3072 6.32 20.2872 6.32C18.9672 6.32 17.8872 7.32 17.8872 8.58C17.8872 9.52 18.5272 10.24 19.2872 10.44L19.3872 10.16C19.2472 10.06 19.1272 9.88 19.1272 9.68ZM33.4831 13.16L33.6631 13.64C35.5231 13.18 37.2831 11.94 37.2831 9.46V7.42V5.86C37.2831 4.76 37.6431 4.2 38.2431 3.64H38.8631C38.2231 4.34 37.9831 5.32 37.9831 6.58V10.18C37.9831 11.68 37.1231 12.42 36.3431 13.18C34.4231 13.72 33.0031 15.06 32.1831 16.64H32.7431C33.8231 15.66 35.2831 15.08 36.7431 15.08C38.0231 15.08 39.2031 15.48 40.2031 16.2L45.2031 13.44C45.9431 11.94 46.5231 9.94 46.5231 7.86C46.5231 4.04 45.0431 1.2 40.8431 1.2H35.3831C34.6031 1.2 34.0431 0.96 33.9231 0.319999L33.4831 0.299999C33.1231 1.68 33.1231 3.64 34.7431 3.64H37.5231L35.9431 4.68C35.2231 5.14 34.7031 5.6 34.7031 6.78C34.7031 6.94 34.7031 7.1 34.7031 7.26C33.4431 7.46 32.3831 7.94 32.3831 9.5C32.3831 9.9 32.4831 10.3 32.6831 10.66H33.0631C33.0031 9.96 33.4031 9.52 34.2031 9.52C34.3631 9.52 34.5431 9.52 34.7031 9.52C34.7031 9.52 34.7031 9.54 34.7031 9.56C34.7031 11.22 34.5831 12.52 33.4831 13.16ZM40.1631 13.12C40.1631 12.26 40.1631 11.38 40.1631 10.52L43.8031 8.66C43.8031 10.84 43.3631 12.68 42.6831 14.34C41.9431 13.78 41.0831 13.36 40.1631 13.12ZM40.1631 3.66C40.6231 3.66 41.0831 3.68 41.5031 3.84C42.5031 4.18 43.1231 4.98 43.4631 6.02L40.1631 7.7C40.1631 6.34 40.1631 5 40.1631 3.66ZM39.6031 13C39.1831 12.94 38.7631 12.9 38.3431 12.9C38.0031 12.9 37.6631 12.92 37.3431 12.96C37.9831 12.28 38.5431 11.46 38.5431 10.2V6.6C38.5431 5.24 38.7831 4.34 39.6031 3.76C39.6031 6.84 39.6031 9.92 39.6031 13ZM40.1631 8.34L43.6231 6.6C43.7231 7.04 43.7631 7.52 43.8031 8.04L40.1631 9.88C40.1631 9.36 40.1631 8.84 40.1631 8.34Z" fill="black"/>
</svg>
